<?xml version="1.0" standalone="no"?><svg xmlns="http://www.w3.org/2000/svg" viewBox="0 0 1440 320"><path fill="#00bd2f" fill-opacity="1" d="M0,96L40,122.7C80,149,160,203,240,197.3C320,192,400,128,480,85.3C560,43,640,21,720,42.7C800,64,880,128,960,165.3C1040,203,1120,213,1200,208C1280,203,1360,181,1400,170.7L1440,160L1440,320L1400,320C1360,320,1280,320,1200,320C1120,320,1040,320,960,320C880,320,800,320,720,320C640,320,560,320,480,320C400,320,320,320,240,320C160,320,80,320,40,320L0,320Z"></path></svg>